<?xml version="1.0" encoding="utf-8"?>
<!-- Generator: Adobe Illustrator 24.0.1, SVG Export Plug-In . SVG Version: 6.00 Build 0)  -->
<svg version="1.1" id="Layer_1" xmlns="http://www.w3.org/2000/svg" xmlns:xlink="http://www.w3.org/1999/xlink" x="0px" y="0px"
	 viewBox="0 0 659.7 618" style="enable-background:new 0 0 659.7 618;" xml:space="preserve">
<style type="text/css">
	.st0{fill:#51AF9E;}
	.st1{fill:#FBFBEA;}
</style>
<g>
	<path class="st0" d="M583.3,116.8c66.2,80,87,172.3,64.3,250.2c-22,78.8-87.4,143.1-176.9,188.3c-89.8,44.4-179.7,65.6-248.3,61.3
		c-69.8-4.7-118.3-35-155.5-102.6c-35.8-66.7-59.3-157.5-63.9-244c-3.9-86.8,26-164.8,100.7-199.2
		C280.4-10.6,450.2-45.4,583.3,116.8z"/>
	<g>
		<path class="st1" d="M475.9,228.6c40.8,0,68,16.1,70.1,41.6c0,16.1-9.5,26.4-23.9,26.4c-15.3,0-25.6-11.5-27.2-29.7
			c-1.2-13.2-10.7-21.4-24.7-21.4c-23.5,0-38.3,25.6-38.3,65.6c0,44.5,22.3,82,71.7,77.9c9.5-0.8,28.4-9.9,36.7-30.5l6.2,5.8
			c-17.7,40.4-59.8,56.5-86.2,56.5c-52.4,0-85.8-33.8-85.8-86.6C374.5,269.9,414,228.6,475.9,228.6z"/>
	</g>
	<g>
		<path class="st1" d="M593.7,284.4c20.3,0,33.2,14.3,33.2,36.9s-12.9,36.9-33.2,36.9s-33.2-14.3-33.2-36.9S573.4,284.4,593.7,284.4
			z"/>
	</g>
	<path class="st1" d="M449.8,454.8c-1.5-10.8-12.2-17.4-22.6-17.4c-5.6,0-11.1,1.8-15.2,6.3c-8.9,9.7-21.2,28.6-39.7,22.3
		c-15.2-5.2-16.3-39-16.3-51.6c0-3.7-0.7-19-0.7-50.5v-88.5c0-34.9-10.8-57.1-40.1-57.1c-20.1,0-45.8,7.5-62.2,18.7v-37.3l1-26.3
		c10.1-2.4,20-3.8,29.4-3.8c21.4,0,40.2,6.9,53.9,24.8c3.4,4.7,8.6,6.9,13.7,6.9c9.4,0,20.1-6.9,26.1-17.5
		c10.3-18-0.9-37.6-16.7-47.9c-11.5-7.7-25.2-10.7-39.8-10.7c-62,0-145.1,56-190,89v-55.2h-12c-17.5,38.1-37.4,84.3-64,75.7
		l0.4,17.1c7.3,3.4,11.5,4.7,20.1,4.3l-0.4,93.7c0,49.2,9.6,62,48.1,62c13.3,0,44.9-6.4,65.5-46.2l-3.9-5.6
		c-12.4,19.3-27,24-34.2,24c-15.4,0-20.1-4.7-20.1-23.5c0-37.2,0.4-121.5,0.4-121.5v-4.3c19-12.7,42.6-27.6,67.4-39.9
		c1.3,0.7,2-2.5,2,2.1V385c0,9.7-4.6,16-13.7,19l-4.6,1.5v3.8h89.1v-3.8l-3-0.8c-9.1-2.8-13.7-9.1-13.7-19V268.4l-0.4-15.2
		c9.1-7,19.6-9.8,25.1-9.8c14.8,0,24.1,19.7,24.1,37.5v119c0,56.4,36,74.9,46.4,81.6c13,8.5,30,12.6,47.1,12.6
		c8.5,0,17.1-1.1,24.9-3C440.1,486.3,452.7,474.5,449.8,454.8z"/>
</g>
</svg>
